<?xml version="1.0" standalone="no"?>
<!DOCTYPE svg PUBLIC "-//W3C//DTD SVG 20010904//EN"
 "http://www.w3.org/TR/2001/REC-SVG-20010904/DTD/svg10.dtd">
<svg version="1.0" xmlns="http://www.w3.org/2000/svg"
 width="128.000000pt" height="128.000000pt" viewBox="0 0 128.000000 128.000000"
 preserveAspectRatio="xMidYMid meet">

<g transform="translate(0.000000,128.000000) scale(0.100000,-0.100000)"
fill="#000000" stroke="none">
<path d="M110 1228 c-42 -26 -61 -45 -82 -87 l-28 -53 0 -448 0 -448 28 -53
c21 -42 40 -61 82 -86 l54 -33 476 0 476 0 54 32 c42 26 61 45 82 87 l28 53 0
448 0 448 -28 53 c-21 42 -40 61 -82 87 l-54 32 -476 0 -476 0 -54 -32z m1028
-51 c23 -15 52 -46 64 -70 23 -42 23 -44 23 -467 0 -412 -1 -426 -21 -465 -11
-22 -40 -53 -63 -70 l-43 -30 -458 0 -458 0 -43 30 c-23 17 -52 48 -63 70 -20
38 -21 57 -24 440 -2 273 1 414 8 445 15 59 49 103 102 129 42 21 50 21 489
19 l445 -3 42 -28z"/>
<path d="M250 950 c0 -5 30 -71 68 -146 l67 -135 -73 -140 c-40 -76 -71 -139
-68 -140 4 0 25 -1 49 -2 l42 -1 54 109 53 109 57 -109 56 -110 48 -3 c31 -2
47 1 47 9 0 6 -32 74 -72 151 l-72 139 73 140 73 140 -52 -3 -51 -3 -47 -102
c-25 -57 -49 -103 -52 -103 -3 0 -27 47 -54 105 l-49 105 -48 0 c-27 0 -49 -4
-49 -10z"/>
<path d="M920 885 l0 -75 -43 0 c-64 0 -126 -36 -162 -95 -27 -43 -30 -57 -30
-124 1 -146 71 -216 210 -208 39 2 82 9 98 15 l27 12 0 275 0 275 -50 0 -50 0
0 -75z m0 -290 l0 -135 -35 0 c-24 0 -45 9 -67 29 -32 28 -33 32 -33 106 0 74
1 78 33 106 22 20 43 29 67 29 l35 0 0 -135z"/>
</g>
</svg>
